{
  "accessors": [
    {
      "bufferView": 2,
      "componentType": 5126,
      "count": 4429,
      "max": [
        90.19129943847656,
        253.59622192382813,
        47.140625
      ],
      "min": [
        -90.19129943847656,
        -0.12425599992275238,
        -117.89106750488281
      ],
      "type": "VEC3"
    },
    {
      "bufferView": 2,
      "byteOffset": 53148,
      "componentType": 5126,
      "count": 4429,
      "max": [
        0.9999437928199768,
        0.9999813437461853,
        0.9996874928474426
      ],
      "min": [
        -0.9999288320541382,
        -1.0,
        -0.9999290704727173
      ],
      "type": "VEC3"
    },
    {
      "bufferView": 3,
      "componentType": 5126,
      "count": 4429,
      "max": [
        1.0,
        0.9997816681861877,
        0.9996808171272278,
        1.0
      ],
      "min": [
        -0.9990184307098389,
        -0.9996179342269897,
        -0.9999991655349731,
        -1.0
      ],
      "type": "VEC4"
    },
    {
      "bufferView": 1,
      "componentType": 5126,
      "count": 4429,
      "max": [
        0.9986799955368042,
        0.9962909817695618
      ],
      "min": [
        0.00036299999919719994,
        0.0008440000237897038
      ],
      "type": "VEC2"
    },
    {
      "bufferView": 0,
      "componentType": 5125,
      "count": 19779,
      "type": "SCALAR"
    },
    {
      "bufferView": 2,
      "byteOffset": 106296,
      "componentType": 5126,
      "count": 325,
      "max": [
        128.02743530273438,
        176.8561248779297,
        -19.224563598632813
      ],
      "min": [
        -88.67310333251953,
        19.89082908630371,
        -48.297874450683594
      ],
      "type": "VEC3"
    },
    {
      "bufferView": 2,
      "byteOffset": 110196,
      "componentType": 5126,
      "count": 325,
      "max": [
        0.9954996109008789,
        0.9924687147140503,
        0.9992793798446655
      ],
      "min": [
        -0.9850549697875977,
        -0.9594687223434448,
        -0.9990623593330383
      ],
      "type": "VEC3"
    },
    {
      "bufferView": 3,
      "byteOffset": 70864,
      "componentType": 5126,
      "count": 325,
      "max": [
        0.9854217767715454,
        0.996407151222229,
        0.9995923638343811,
        1.0
      ],
      "min": [
        -0.9957373142242432,
        -0.9966312646865845,
        -0.9995434284210205,
        -1.0
      ],
      "type": "VEC4"
    },
    {
      "bufferView": 1,
      "byteOffset": 35432,
      "componentType": 5126,
      "count": 325,
      "max": [
        0.9926919937133789,
        0.9985139966011047
      ],
      "min": [
        0.0009420000133104622,
        0.0014410000294446945
      ],
      "type": "VEC2"
    },
    {
      "bufferView": 0,
      "byteOffset": 79116,
      "componentType": 5125,
      "count": 1338,
      "type": "SCALAR"
    }
  ],
  "asset": {
    "extras": {
      "author": "Richard.Yu (https://sketchfab.com/Richard.Yu)",
      "license": "CC-BY-4.0 (http://creativecommons.org/licenses/by/4.0/)",
      "source": "https://sketchfab.com/3d-models/knight-bcfd53f247cb46e8aa79337bbe590a50",
      "title": "Knight"
    },
    "generator": "Sketchfab-12.67.0",
    "version": "2.0"
  },
  "bufferViews": [
    {
      "buffer": 0,
      "byteLength": 84468,
      "name": "floatBufferViews",
      "target": 34963
    },
    {
      "buffer": 0,
      "byteLength": 38032,
      "byteOffset": 84468,
      "byteStride": 8,
      "name": "floatBufferViews",
      "target": 34962
    },
    {
      "buffer": 0,
      "byteLength": 114096,
      "byteOffset": 122500,
      "byteStride": 12,
      "name": "floatBufferViews",
      "target": 34962
    },
    {
      "buffer": 0,
      "byteLength": 76064,
      "byteOffset": 236596,
      "byteStride": 16,
      "name": "floatBufferViews",
      "target": 34962
    }
  ],
  "buffers": [
    {
      "byteLength": 312660,
      "uri": "scene.bin"
    }
  ],
  "extensionsRequired": [
    "KHR_materials_pbrSpecularGlossiness"
  ],
  "extensionsUsed": [
    "KHR_materials_pbrSpecularGlossiness"
  ],
  "images": [
    {
      "uri": "textures/lambert1_diffuse.png"
    },
    {
      "uri": "textures/lambert1_specularGlossiness.png"
    },
    {
      "uri": "textures/lambert1_normal.png"
    },
    {
      "uri": "textures/blinn1_diffuse.png"
    },
    {
      "uri": "textures/blinn1_specularGlossiness.png"
    },
    {
      "uri": "textures/blinn1_normal.png"
    }
  ],
  "materials": [
    {
      "doubleSided": true,
      "extensions": {
        "KHR_materials_pbrSpecularGlossiness": {
          "diffuseFactor": [
            1.0,
            1.0,
            1.0,
            1.0
          ],
          "diffuseTexture": {
            "index": 0
          },
          "glossinessFactor": 1.0,
          "specularFactor": [
            0.0,
            0.0,
            0.0
          ],
          "specularGlossinessTexture": {
            "index": 1
          }
        }
      },
      "name": "lambert1",
      "normalTexture": {
        "index": 2
      }
    },
    {
      "doubleSided": true,
      "extensions": {
        "KHR_materials_pbrSpecularGlossiness": {
          "diffuseFactor": [
            1.0,
            1.0,
            1.0,
            1.0
          ],
          "diffuseTexture": {
            "index": 3
          },
          "glossinessFactor": 1.0,
          "specularFactor": [
            0.3431783536585366,
            0.3431783536585366,
            0.3431783536585366
          ],
          "specularGlossinessTexture": {
            "index": 4
          }
        }
      },
      "name": "blinn1",
      "normalTexture": {
        "index": 5
      }
    }
  ],
  "meshes": [
    {
      "name": "polySurface1_lambert1_0",
      "primitives": [
        {
          "attributes": {
            "NORMAL": 1,
            "POSITION": 0,
            "TANGENT": 2,
            "TEXCOORD_0": 3
          },
          "indices": 4,
          "material": 0,
          "mode": 4
        }
      ]
    },
    {
      "name": "polySurface220_blinn1_0",
      "primitives": [
        {
          "attributes": {
            "NORMAL": 6,
            "POSITION": 5,
            "TANGENT": 7,
            "TEXCOORD_0": 8
          },
          "indices": 9,
          "material": 1,
          "mode": 4
        }
      ]
    }
  ],
  "nodes": [
    {
      "children": [
        1
      ],
      "matrix": [
        0.007522267755120993,
        0.0,
        0.0,
        0.0,
        0.0,
        1.670278971826143e-18,
        -0.007522267755120993,
        0.0,
        0.0,
        0.007522267755120993,
        1.670278971826143e-18,
        0.0,
        0.0,
        0.0,
        0.0,
        1.0
      ],
      "name": "Sketchfab_model"
    },
    {
      "children": [
        2
      ],
      "matrix": [
        1.0,
        0.0,
        0.0,
        0.0,
        0.0,
        0.0,
        1.0,
        0.0,
        0.0,
        -1.0,
        0.0,
        0.0,
        0.0,
        0.0,
        0.0,
        1.0
      ],
      "name": "245131f460244608a5b90123f8946b51.fbx"
    },
    {
      "children": [
        3,
        5
      ],
      "name": "RootNode"
    },
    {
      "children": [
        4
      ],
      "name": "polySurface1"
    },
    {
      "mesh": 0,
      "name": "polySurface1_lambert1_0"
    },
    {
      "children": [
        6
      ],
      "name": "polySurface220"
    },
    {
      "mesh": 1,
      "name": "polySurface220_blinn1_0"
    }
  ],
  "samplers": [
    {
      "magFilter": 9729,
      "minFilter": 9987,
      "wrapS": 10497,
      "wrapT": 10497
    }
  ],
  "scene": 0,
  "scenes": [
    {
      "name": "Sketchfab_Scene",
      "nodes": [
        0
      ]
    }
  ],
  "textures": [
    {
      "sampler": 0,
      "source": 0
    },
    {
      "sampler": 0,
      "source": 1
    },
    {
      "sampler": 0,
      "source": 2
    },
    {
      "sampler": 0,
      "source": 3
    },
    {
      "sampler": 0,
      "source": 4
    },
    {
      "sampler": 0,
      "source": 5
    }
  ]
}
