{
  "accessors": [
    {
      "bufferView": 2,
      "componentType": 5126,
      "count": 108,
      "max": [
        440.4041748046875,
        504.8907775878906,
        404.4931945800781
      ],
      "min": [
        -442.4454650878906,
        -361.32000732421875,
        -18.497419357299805
      ],
      "type": "VEC3"
    },
    {
      "bufferView": 2,
      "byteOffset": 1296,
      "componentType": 5126,
      "count": 108,
      "max": [
        0.9892792105674744,
        0.08128499239683151,
        0.29198306798934937
      ],
      "min": [
        -0.9836899042129517,
        -0.9806559085845947,
        0.1386459767818451
      ],
      "type": "VEC3"
    },
    {
      "bufferView": 3,
      "componentType": 5126,
      "count": 108,
      "max": [
        0.987476646900177,
        0.9739127159118652,
        0.969151496887207,
        1.0
      ],
      "min": [
        -0.9800046682357788,
        -0.9647636413574219,
        -0.2677547335624695,
        -1.0
      ],
      "type": "VEC4"
    },
    {
      "bufferView": 1,
      "componentType": 5126,
      "count": 108,
      "max": [
        0.9914659857749939,
        0.99372798204422
      ],
      "min": [
        0.004232000093907118,
        0.01028400007635355
      ],
      "type": "VEC2"
    },
    {
      "bufferView": 0,
      "componentType": 5125,
      "count": 270,
      "type": "SCALAR"
    },
    {
      "bufferView": 2,
      "byteOffset": 2592,
      "componentType": 5126,
      "count": 10441,
      "max": [
        191.9810791015625,
        60.768253326416016,
        381.3773498535156
      ],
      "min": [
        -191.98117065429688,
        -123.13442993164063,
        -7.064105987548828
      ],
      "type": "VEC3"
    },
    {
      "bufferView": 2,
      "byteOffset": 127884,
      "componentType": 5126,
      "count": 10441,
      "max": [
        0.999468982219696,
        0.9990216493606567,
        0.9999241232872009
      ],
      "min": [
        -0.9999849796295166,
        -0.9996829032897949,
        -0.9997024536132813
      ],
      "type": "VEC3"
    },
    {
      "bufferView": 3,
      "byteOffset": 1728,
      "componentType": 5126,
      "count": 10441,
      "max": [
        0.9999986290931702,
        0.9999932646751404,
        0.999975323677063,
        1.0
      ],
      "min": [
        -1.0,
        -0.9998649954795837,
        -0.9999532103538513,
        -1.0
      ],
      "type": "VEC4"
    },
    {
      "bufferView": 1,
      "byteOffset": 864,
      "componentType": 5126,
      "count": 10441,
      "max": [
        0.9934250116348267,
        0.9940009713172913
      ],
      "min": [
        0.0025049999821931124,
        0.0032420000061392784
      ],
      "type": "VEC2"
    },
    {
      "bufferView": 0,
      "byteOffset": 1080,
      "componentType": 5125,
      "count": 33933,
      "type": "SCALAR"
    },
    {
      "bufferView": 2,
      "byteOffset": 253176,
      "componentType": 5126,
      "count": 187,
      "max": [
        155.43576049804688,
        108.96981811523438,
        0.0
      ],
      "min": [
        -155.435791015625,
        -201.90176391601563,
        -18.319074630737305
      ],
      "type": "VEC3"
    },
    {
      "bufferView": 2,
      "byteOffset": 255420,
      "componentType": 5126,
      "count": 187,
      "max": [
        0.997403621673584,
        0.997403621673584,
        1.0
      ],
      "min": [
        -0.997403621673584,
        -0.997403621673584,
        0.0
      ],
      "type": "VEC3"
    },
    {
      "bufferView": 3,
      "byteOffset": 168784,
      "componentType": 5126,
      "count": 187,
      "max": [
        0.9974042177200317,
        0.9996468424797058,
        0.1528075635433197,
        1.0
      ],
      "min": [
        -0.9996464848518372,
        -0.9996458888053894,
        -0.15280736982822418,
        1.0
      ],
      "type": "VEC4"
    },
    {
      "bufferView": 1,
      "byteOffset": 84392,
      "componentType": 5126,
      "count": 187,
      "max": [
        0.983473002910614,
        0.9889169931411743
      ],
      "min": [
        0.012799999676644802,
        0.01617399975657463
      ],
      "type": "VEC2"
    },
    {
      "bufferView": 0,
      "byteOffset": 136812,
      "componentType": 5125,
      "count": 660,
      "type": "SCALAR"
    },
    {
      "bufferView": 2,
      "byteOffset": 257664,
      "componentType": 5126,
      "count": 5196,
      "max": [
        370.1991271972656,
        105.7635498046875,
        584.239501953125
      ],
      "min": [
        -370.1991271972656,
        -291.08355712890625,
        68.93549346923828
      ],
      "type": "VEC3"
    },
    {
      "bufferView": 2,
      "byteOffset": 320016,
      "componentType": 5126,
      "count": 5196,
      "max": [
        0.9997588992118835,
        0.9990107417106628,
        0.9947492480278015
      ],
      "min": [
        -0.9997588992118835,
        -0.9998048543930054,
        -0.9955645203590393
      ],
      "type": "VEC3"
    },
    {
      "bufferView": 3,
      "byteOffset": 171776,
      "componentType": 5126,
      "count": 5196,
      "max": [
        0.9999002814292908,
        0.9982824921607971,
        0.9953770637512207,
        1.0
      ],
      "min": [
        -0.9999002814292908,
        -0.9983462691307068,
        -0.998490571975708,
        -1.0
      ],
      "type": "VEC4"
    },
    {
      "bufferView": 1,
      "byteOffset": 85888,
      "componentType": 5126,
      "count": 5196,
      "max": [
        0.9934030175209045,
        0.9937000274658203
      ],
      "min": [
        0.004885000176727772,
        0.004242999944835901
      ],
      "type": "VEC2"
    },
    {
      "bufferView": 0,
      "byteOffset": 139452,
      "componentType": 5125,
      "count": 14652,
      "type": "SCALAR"
    }
  ],
  "asset": {
    "extras": {
      "author": "Nicolas Laube (https://sketchfab.com/nicolaslaube09)",
      "license": "CC-BY-4.0 (http://creativecommons.org/licenses/by/4.0/)",
      "source": "https://sketchfab.com/3d-models/seran-decimate-f70878e00f22478a8e10099e80222d9e",
      "title": "Seran (DECIMATE)"
    },
    "generator": "Sketchfab-12.68.0",
    "version": "2.0"
  },
  "bufferViews": [
    {
      "buffer": 0,
      "byteLength": 198060,
      "name": "floatBufferViews",
      "target": 34963
    },
    {
      "buffer": 0,
      "byteLength": 127456,
      "byteOffset": 198060,
      "byteStride": 8,
      "name": "floatBufferViews",
      "target": 34962
    },
    {
      "buffer": 0,
      "byteLength": 382368,
      "byteOffset": 325516,
      "byteStride": 12,
      "name": "floatBufferViews",
      "target": 34962
    },
    {
      "buffer": 0,
      "byteLength": 254912,
      "byteOffset": 707884,
      "byteStride": 16,
      "name": "floatBufferViews",
      "target": 34962
    }
  ],
  "buffers": [
    {
      "byteLength": 962796,
      "uri": "scene.bin"
    }
  ],
  "images": [
    {
      "uri": "textures/Fireblinn1SG_baseColor.png"
    },
    {
      "uri": "textures/Fireblinn1SG_metallicRoughness.png"
    },
    {
      "uri": "textures/Fireblinn1SG_emissive.png"
    },
    {
      "uri": "textures/Fireblinn1SG_normal.png"
    },
    {
      "uri": "textures/blinn1SG_baseColor.png"
    },
    {
      "uri": "textures/blinn1SG_metallicRoughness.png"
    },
    {
      "uri": "textures/blinn1SG_emissive.png"
    },
    {
      "uri": "textures/blinn1SG_normal.png"
    },
    {
      "uri": "textures/blinn2SG_baseColor.png"
    },
    {
      "uri": "textures/blinn2SG_metallicRoughness.png"
    },
    {
      "uri": "textures/blinn2SG_emissive.png"
    },
    {
      "uri": "textures/blinn2SG_normal.png"
    },
    {
      "uri": "textures/blinn3SG_baseColor.png"
    },
    {
      "uri": "textures/blinn3SG_metallicRoughness.png"
    },
    {
      "uri": "textures/blinn3SG_emissive.png"
    },
    {
      "uri": "textures/blinn3SG_normal.png"
    }
  ],
  "materials": [
    {
      "alphaMode": "BLEND",
      "doubleSided": true,
      "emissiveFactor": [
        1.0,
        1.0,
        1.0
      ],
      "emissiveTexture": {
        "index": 2
      },
      "name": "Fireblinn1SG",
      "normalTexture": {
        "index": 3
      },
      "pbrMetallicRoughness": {
        "baseColorFactor": [
          1.0,
          1.0,
          1.0,
          0.6644489235053415
        ],
        "baseColorTexture": {
          "index": 0
        },
        "metallicRoughnessTexture": {
          "index": 1
        }
      }
    },
    {
      "doubleSided": true,
      "emissiveFactor": [
        1.0,
        1.0,
        1.0
      ],
      "emissiveTexture": {
        "index": 6
      },
      "name": "blinn1SG",
      "normalTexture": {
        "index": 7
      },
      "pbrMetallicRoughness": {
        "baseColorTexture": {
          "index": 4
        },
        "metallicRoughnessTexture": {
          "index": 5
        }
      }
    },
    {
      "alphaCutoff": 0.55,
      "alphaMode": "MASK",
      "doubleSided": true,
      "emissiveFactor": [
        1.0,
        1.0,
        1.0
      ],
      "emissiveTexture": {
        "index": 10
      },
      "name": "blinn2SG",
      "normalTexture": {
        "index": 11
      },
      "pbrMetallicRoughness": {
        "baseColorTexture": {
          "index": 8
        },
        "metallicRoughnessTexture": {
          "index": 9
        }
      }
    },
    {
      "doubleSided": true,
      "emissiveFactor": [
        1.0,
        1.0,
        1.0
      ],
      "emissiveTexture": {
        "index": 14
      },
      "name": "blinn3SG",
      "normalTexture": {
        "index": 15
      },
      "pbrMetallicRoughness": {
        "baseColorTexture": {
          "index": 12
        },
        "metallicRoughnessTexture": {
          "index": 13
        }
      }
    }
  ],
  "meshes": [
    {
      "name": "Object_0",
      "primitives": [
        {
          "attributes": {
            "NORMAL": 1,
            "POSITION": 0,
            "TANGENT": 2,
            "TEXCOORD_0": 3
          },
          "indices": 4,
          "material": 0,
          "mode": 4
        }
      ]
    },
    {
      "name": "Object_1",
      "primitives": [
        {
          "attributes": {
            "NORMAL": 6,
            "POSITION": 5,
            "TANGENT": 7,
            "TEXCOORD_0": 8
          },
          "indices": 9,
          "material": 1,
          "mode": 4
        }
      ]
    },
    {
      "name": "Object_2",
      "primitives": [
        {
          "attributes": {
            "NORMAL": 11,
            "POSITION": 10,
            "TANGENT": 12,
            "TEXCOORD_0": 13
          },
          "indices": 14,
          "material": 3,
          "mode": 4
        }
      ]
    },
    {
      "name": "Object_3",
      "primitives": [
        {
          "attributes": {
            "NORMAL": 16,
            "POSITION": 15,
            "TANGENT": 17,
            "TEXCOORD_0": 18
          },
          "indices": 19,
          "material": 2,
          "mode": 4
        }
      ]
    }
  ],
  "nodes": [
    {
      "children": [
        1
      ],
      "matrix": [
        1.0,
        0.0,
        0.0,
        0.0,
        0.0,
        3.828568672208042e-16,
        -1.0,
        0.0,
        0.0,
        1.0,
        3.828568672208042e-16,
        0.0,
        0.0,
        9.466330862652142e-30,
        -4.263256414560601e-14,
        1.0
      ],
      "name": "Sketchfab_model"
    },
    {
      "children": [
        2,
        3,
        4,
        5
      ],
      "name": "DEC_SE_Combined.obj.cleaner.materialmerger.gles"
    },
    {
      "mesh": 0,
      "name": "Object_2"
    },
    {
      "mesh": 1,
      "name": "Object_3"
    },
    {
      "mesh": 2,
      "name": "Object_4"
    },
    {
      "mesh": 3,
      "name": "Object_5"
    }
  ],
  "samplers": [
    {
      "magFilter": 9729,
      "minFilter": 9987,
      "wrapS": 10497,
      "wrapT": 10497
    }
  ],
  "scene": 0,
  "scenes": [
    {
      "name": "Sketchfab_Scene",
      "nodes": [
        0
      ]
    }
  ],
  "textures": [
    {
      "sampler": 0,
      "source": 0
    },
    {
      "sampler": 0,
      "source": 1
    },
    {
      "sampler": 0,
      "source": 2
    },
    {
      "sampler": 0,
      "source": 3
    },
    {
      "sampler": 0,
      "source": 4
    },
    {
      "sampler": 0,
      "source": 5
    },
    {
      "sampler": 0,
      "source": 6
    },
    {
      "sampler": 0,
      "source": 7
    },
    {
      "sampler": 0,
      "source": 8
    },
    {
      "sampler": 0,
      "source": 9
    },
    {
      "sampler": 0,
      "source": 10
    },
    {
      "sampler": 0,
      "source": 11
    },
    {
      "sampler": 0,
      "source": 12
    },
    {
      "sampler": 0,
      "source": 13
    },
    {
      "sampler": 0,
      "source": 14
    },
    {
      "sampler": 0,
      "source": 15
    }
  ]
}
